HIERARCHY
ROOT Pelvis
{
	OFFSET 0.000000 0.000000 0.000000
	CHANNELS 6 Xposition Yposition Zposition Xrotation Yrotation Zrotation
	JOINT LeftUpLeg_virtual
	{
		OFFSET 0.000000 0.000000 0.000000
		CHANNELS 3 Xrotation Yrotation Zrotation
		JOINT LeftUpLeg
		{
			OFFSET 18.735201 -5.666702 -4.541200
			CHANNELS 3 Xrotation Yrotation Zrotation
			JOINT LeftLeg
			{
				OFFSET -0.021200 -31.938179 0.493100
				CHANNELS 3 Xrotation Yrotation Zrotation
				JOINT LeftFoot
				{
					OFFSET 0.021200 -31.938179 -4.336299
					CHANNELS 3 Xrotation Yrotation Zrotation
					JOINT LeftToeBase
					{
						OFFSET 0.943001 -26.722000 15.023500
						CHANNELS 3 Xrotation Yrotation Zrotation
						End Site
						{
							OFFSET 0 0 0
						}
					}
				}
			}
		}
	}
	JOINT RightUpLeg_virtual
	{
		OFFSET 0.000000 0.000000 0.000000
		CHANNELS 3 Xrotation Yrotation Zrotation
		JOINT RightUpLeg
		{
			OFFSET -18.735201 -5.666702 -4.541200
			CHANNELS 3 Xrotation Yrotation Zrotation
			JOINT RightLeg
			{
				OFFSET 0.018946 -31.938133 0.493100
				CHANNELS 3 Xrotation Yrotation Zrotation
				JOINT RightFoot
				{
					OFFSET -0.018946 -31.938126 -4.336299
					CHANNELS 3 Xrotation Yrotation Zrotation
					JOINT RightToeBase
					{
						OFFSET -0.943001 -26.722004 15.023500
						CHANNELS 3 Xrotation Yrotation Zrotation
						End Site
						{
							OFFSET 0 0 0
						}
					}
				}
			}
		}
	}
	JOINT Hips_virtual
	{
		OFFSET 0.000000 0.000000 0.000000
		CHANNELS 3 Xrotation Yrotation Zrotation
		JOINT Hips
		{
			OFFSET -0.000000 -0.000000 -0.000000
			CHANNELS 3 Xrotation Yrotation Zrotation
			JOINT Spine
			{
				OFFSET 0.000000 10.199997 -0.299500
				CHANNELS 3 Xrotation Yrotation Zrotation
				JOINT Spine1
				{
					OFFSET 0.000000 11.900002 -1.516600
					CHANNELS 3 Xrotation Yrotation Zrotation
					JOINT Spine2
					{
						OFFSET 0.000000 13.600006 -2.842500
						CHANNELS 3 Xrotation Yrotation Zrotation
						JOINT Neck_virtual
						{
							OFFSET 0.000000 0.000000 0.000000
							CHANNELS 3 Xrotation Yrotation Zrotation
							JOINT Neck
							{
								OFFSET 0.000000 9.624100 -2.890100
								CHANNELS 3 Xrotation Yrotation Zrotation
								JOINT Head
								{
									OFFSET 0.000000 14.068802 -1.351900
									CHANNELS 3 Xrotation Yrotation Zrotation
									End Site
									{
										OFFSET 0 0 0
									}
								}
							}
						}
						JOINT LeftShoulder_virtual
						{
							OFFSET 0.000000 0.000000 0.000000
							CHANNELS 3 Xrotation Yrotation Zrotation
							JOINT LeftShoulder
							{
								OFFSET 15.263000 10.923401 -0.547700
								CHANNELS 3 Xrotation Yrotation Zrotation
								JOINT LeftArm
								{
									OFFSET 25.438599 -2.830597 -13.032500
									CHANNELS 3 Xrotation Yrotation Zrotation
									JOINT LeftForeArm
									{
										OFFSET 29.960503 0.000000 0.000000
										CHANNELS 3 Xrotation Yrotation Zrotation
										JOINT LeftHand
										{
											OFFSET 27.849251 0.000000 0.000000
											CHANNELS 3 Xrotation Yrotation Zrotation
											End Site
											{
												OFFSET 0 0 0
											}
										}
									}
								}
							}
						}
						JOINT RightShoulder_virtual
						{
							OFFSET 0.000000 0.000000 0.000000
							CHANNELS 3 Xrotation Yrotation Zrotation
							JOINT RightShoulder
							{
								OFFSET -15.263000 10.923401 -0.547700
								CHANNELS 3 Xrotation Yrotation Zrotation
								JOINT RightArm
								{
									OFFSET -25.438599 -2.830597 -13.032500
									CHANNELS 3 Xrotation Yrotation Zrotation
									JOINT RightForeArm
									{
										OFFSET -29.960503 0.000000 0.000000
										CHANNELS 3 Xrotation Yrotation Zrotation
										JOINT RightHand
										{
											OFFSET -27.849251 0.000000 0.000000
											CHANNELS 3 Xrotation Yrotation Zrotation
											End Site
											{
												OFFSET 0 0 0
											}
										}
									}
								}
							}
						}
					}
				}
			}
		}
	}
}
MOTION
Frames: 10
Frame Time: 0.03333333
-0.278262 85.176552 4.000122 0.000000 0.000000 0.000000 -7.183845 -73.460324 -6.318112 -52.787551 18.927042 53.923500 73.037398 -5.775429 0.279942 7.381123 -2.610780 -5.791507 0.000000 0.000000 0.000000 -5.041000 -72.537688 -4.094239 -34.446150 -17.619339 -40.515214 54.408758 0.824087 1.647721 -14.647911 3.353228 0.683376 0.000000 0.000000 0.000000 -4.096502 -71.792576 -3.120629 -0.789120 0.109505 -0.029178 5.991660 -1.975299 -8.070823 2.119298 3.833000 -3.422994 0.000000 0.000000 0.000000 -3.567168 3.853101 -3.733041 7.818602 2.549733 0.857870 0.000000 0.000000 0.000000 -3.209361 3.372793 -2.726742 10.905112 5.112455 -2.601138 14.949597 -7.531914 -38.137919 -32.050792 -52.497944 -40.726574 0.000000 0.000000 0.000000 -2.637156 3.602335 -3.364382 13.584117 5.350793 0.408393 7.180646 17.319020 47.877601 -6.602808 31.545502 18.995772 0.000000 0.000000 0.000000 
-0.855183 84.412689 4.423615 0.000000 0.000000 0.000000 -3.144348 -76.729157 -2.037846 -52.231785 16.406003 50.302492 69.607428 -7.882652 1.133884 4.172447 -4.831184 -9.214128 0.000000 0.000000 0.000000 -1.820432 -75.735569 -0.464131 -38.716979 -14.740180 -42.109445 55.340464 1.840782 2.355092 -10.684293 3.410012 3.636415 0.000000 0.000000 0.000000 -0.407927 -75.373972 1.048122 -0.805841 0.119205 -0.048498 7.301391 -0.019747 -10.214603 2.028001 4.726174 -3.606095 0.000000 0.000000 0.000000 -4.521781 4.573796 -3.504554 6.912437 1.849924 0.768785 0.000000 0.000000 0.000000 -4.175990 4.114930 -2.634962 10.215485 4.525203 -6.819165 5.905146 -6.519311 -34.166211 -22.594116 -43.420715 -29.590592 0.000000 0.000000 0.000000 -2.406216 4.310031 -3.484745 11.554344 7.952330 1.290160 9.045599 11.752415 52.508158 -5.356547 29.258860 15.160259 0.000000 0.000000 0.000000 
-1.295453 83.723213 5.106316 0.000000 0.000000 0.000000 2.333078 -79.652191 3.491839 -50.152587 14.654357 46.217284 63.312500 -9.901204 1.464540 0.264375 -6.536858 -13.318194 0.000000 0.000000 0.000000 2.370520 -78.415298 3.857845 -42.222484 -11.137481 -42.613902 57.103404 2.290906 2.432520 -7.047782 4.039137 5.388602 0.000000 0.000000 0.000000 4.262887 -78.534799 5.937882 -0.820317 0.148865 -0.066658 8.919581 1.438405 -11.418551 2.145824 5.294787 -3.873059 0.000000 0.000000 0.000000 -5.400461 4.870396 -3.315555 5.821343 1.181675 0.592651 0.000000 0.000000 0.000000 -4.814507 4.432467 -2.579725 9.574948 3.694310 -10.646867 -1.510980 -5.209330 -31.120323 -17.732363 -38.393091 -23.710489 0.000000 0.000000 0.000000 -2.081016 4.554629 -3.636680 9.928860 10.914055 1.985083 10.678411 7.171670 56.598646 -3.899814 26.666966 11.288217 0.000000 0.000000 0.000000 
-1.533803 83.138313 5.771595 0.000000 0.000000 0.000000 7.917134 -81.799001 8.969293 -47.410693 13.058538 42.362158 56.037744 -11.041513 1.356750 -2.077776 -7.061887 -15.858285 0.000000 0.000000 0.000000 6.635511 -80.403655 8.046636 -44.209441 -7.873324 -42.289919 58.531777 2.209378 2.056506 -4.470668 5.044931 6.494759 0.000000 0.000000 0.000000 9.176831 -80.869009 10.781977 -0.828973 0.171326 -0.093217 10.525848 2.336953 -11.747113 2.515195 5.523286 -4.113172 0.000000 0.000000 0.000000 -5.950537 4.780771 -3.117827 4.718769 0.585584 0.325266 0.000000 0.000000 0.000000 -4.933752 4.345395 -2.475268 9.006760 2.645429 -13.889889 -6.902082 -3.278932 -28.903452 -14.313705 -36.755830 -20.025261 0.000000 0.000000 0.000000 -1.655498 4.351514 -3.723602 8.813516 14.013925 2.453833 12.220781 3.633066 59.222391 -2.457028 24.386953 7.787256 0.000000 0.000000 0.000000 
-1.579434 82.632729 6.550304 0.000000 0.000000 0.000000 11.931251 -82.910696 12.673648 -44.735413 11.008045 39.142281 50.287445 -11.134304 1.371024 -2.280022 -6.429438 -15.843916 0.000000 0.000000 0.000000 10.307283 -81.653293 11.382267 -44.465088 -5.631729 -41.643373 58.796632 1.909344 1.276160 -3.598516 6.428980 7.992564 0.000000 0.000000 0.000000 13.189674 -82.196846 14.380200 -0.828575 0.167768 -0.108658 11.737859 2.700657 -11.402680 3.049844 5.419414 -4.217959 0.000000 0.000000 0.000000 -5.991495 4.342537 -2.855726 3.764519 0.087407 -0.022457 0.000000 0.000000 0.000000 -4.511597 3.936064 -2.216390 8.490135 1.424367 -16.447686 -10.801114 -0.552963 -27.660460 -11.226976 -37.161492 -17.309081 0.000000 0.000000 0.000000 -1.309400 3.777747 -3.632219 8.213338 17.088459 2.915797 13.771038 0.756499 60.102420 -1.131708 23.267635 4.860629 0.000000 0.000000 0.000000 
-1.475644 82.166702 7.438408 0.000000 0.000000 0.000000 12.447039 -83.007371 12.746751 -42.588121 8.762966 36.937216 47.187130 -10.630265 1.667394 -1.695917 -5.311495 -14.388909 0.000000 0.000000 0.000000 12.107954 -82.022109 12.672993 -42.994962 -4.571859 -40.921835 57.708173 1.631248 0.304602 -5.107918 7.956078 10.318423 0.000000 0.000000 0.000000 14.539243 -82.337732 15.099002 -0.817107 0.123821 -0.112648 12.411592 2.593455 -10.711577 3.604237 5.035334 -4.108257 0.000000 0.000000 0.000000 -5.431100 3.629223 -2.517869 3.056005 -0.314175 -0.406968 0.000000 0.000000 0.000000 -3.644090 3.276623 -1.777205 7.909342 -0.084677 -18.275686 -13.923686 2.840498 -27.183499 -8.119764 -38.654250 -14.981105 0.000000 0.000000 0.000000 -1.056748 2.969993 -3.328075 7.979915 19.935116 3.607640 15.091076 -1.961871 59.820559 0.130274 23.559689 2.464722 0.000000 0.000000 0.000000 
-1.387496 81.827927 8.165764 0.000000 0.000000 0.000000 10.286125 -82.121892 10.157076 -41.339317 6.986095 36.146345 45.682279 -10.283037 1.675274 -1.695000 -4.773477 -13.701475 0.000000 0.000000 0.000000 11.971272 -81.549426 11.994230 -40.268630 -5.084776 -40.492251 55.328514 1.199291 -0.407237 -9.260008 8.907380 13.154593 0.000000 0.000000 0.000000 13.136175 -81.341447 13.016778 -0.801779 0.068066 -0.105725 12.577709 2.137915 -9.917966 4.097454 4.478567 -3.816812 0.000000 0.000000 0.000000 -4.298251 2.765709 -2.113893 2.626071 -0.605218 -0.800218 0.000000 0.000000 0.000000 -2.598888 2.453531 -1.198006 7.187230 -1.940831 -19.281836 -16.892596 6.501300 -27.280493 -5.216789 -40.775396 -12.969909 0.000000 0.000000 0.000000 -0.896731 2.065955 -2.864902 7.883169 22.163390 4.546292 15.583375 -4.537594 59.583620 1.341150 25.027505 0.426505 0.000000 0.000000 0.000000 
-1.320265 81.658066 8.794807 0.000000 0.000000 0.000000 8.502920 -80.530990 8.058474 -41.167937 6.387347 36.694051 44.727022 -10.364021 0.873257 -2.081895 -5.144584 -14.937135 0.000000 0.000000 0.000000 10.898399 -80.277057 10.456113 -37.313689 -7.311421 -40.649932 52.656869 0.389447 -0.694026 -15.046425 8.885659 15.432775 0.000000 0.000000 0.000000 11.725023 -79.566096 11.007370 -0.803923 0.019888 -0.075387 12.409502 1.466492 -9.261756 4.522031 3.901061 -3.464725 0.000000 0.000000 0.000000 -2.843157 1.845121 -1.717016 2.417744 -0.773199 -1.172147 0.000000 0.000000 0.000000 -1.697329 1.565752 -0.585181 6.320674 -4.111656 -19.546372 -20.047392 10.122345 -27.705768 -2.489443 -43.433528 -11.119416 0.000000 0.000000 0.000000 -0.784550 1.178556 -2.359726 7.816268 23.560464 5.505606 14.935411 -6.544159 60.494357 2.551056 27.082766 -1.461427 0.000000 0.000000 0.000000 
-1.297658 81.666039 9.354794 0.000000 0.000000 0.000000 8.135034 -78.607254 7.483000 -41.741403 6.856654 37.988737 43.674774 -10.682321 -0.646974 -2.439457 -6.103380 -17.752855 0.000000 0.000000 0.000000 9.900997 -78.469796 9.199476 -34.689370 -10.313873 -41.084841 50.246020 -0.680685 -0.675145 -20.546782 8.206010 16.298237 0.000000 0.000000 0.000000 11.013184 -77.506173 9.976909 -0.821897 0.002921 -0.041410 12.187352 0.744415 -8.880327 4.900338 3.385010 -3.100603 0.000000 0.000000 0.000000 -1.405511 0.994930 -1.397624 2.369855 -0.845589 -1.479227 0.000000 0.000000 0.000000 -1.037496 0.753493 -0.067107 5.413331 -6.335675 -19.198924 -23.401615 13.664313 -28.282090 0.014594 -46.123496 -9.421560 0.000000 0.000000 0.000000 -0.579615 0.380332 -1.924109 7.783325 24.043791 6.062341 13.316233 -7.731507 63.003782 3.760660 29.175860 -3.236543 0.000000 0.000000 0.000000 
-1.322649 81.835243 9.898079 0.000000 0.000000 0.000000 9.308505 -76.791933 8.523782 -42.342566 7.814697 39.198398 42.164315 -11.081649 -2.270817 -3.418325 -7.121413 -21.182245 0.000000 0.000000 0.000000 9.554885 -76.585962 8.810945 -32.734737 -12.837714 -41.561414 48.218885 -1.618690 -0.634379 -24.819186 7.534150 16.223803 0.000000 0.000000 0.000000 11.139996 -75.733138 10.105976 -0.833749 0.012838 -0.005592 12.108380 0.092880 -8.779926 5.227942 2.924222 -2.787337 0.000000 0.000000 0.000000 -0.322516 0.260904 -1.185381 2.424516 -0.844667 -1.697624 0.000000 0.000000 0.000000 -0.562403 0.073506 0.255602 4.575748 -8.319267 -18.495696 -26.674296 17.339480 -29.052466 2.311705 -48.067183 -7.854453 0.000000 0.000000 0.000000 -0.299658 -0.324205 -1.616967 7.855289 23.819421 6.013529 11.342263 -8.244339 66.541882 4.845440 31.077224 -4.790953 0.000000 0.000000 0.000000 
